<svg width="24" height="24" viewBox="0 0 24 24" fill="none" xmlns="http://www.w3.org/2000/svg">
<g clip-path="url(#clip0)">
<path d="M18.072 16.278C17.07 16.046 16.136 15.843 16.588 14.989C17.966 12.39 16.954 11 15.5 11C14.018 11 13.031 12.443 14.412 14.989C14.877 15.848 13.908 16.051 12.928 16.278C11.924 16.51 12.001 17.039 12.001 18H18.999C18.999 17.039 19.076 16.51 18.072 16.278ZM8 7.019V24H23V7.019H8ZM21 20H10V9H21V20ZM6 18.868L1 5.13L15.095 0L16.922 5H14.794L13.894 2.545L3.514 6.323L6 13.155V18.868Z" fill="#F9690E"/>
</g>
<defs>
<clipPath id="clip0">
<rect width="24" height="24" fill="white"/>
</clipPath>
</defs>
</svg>
