<svg width="30" height="30" viewBox="0 0 30 30" fill="none" xmlns="http://www.w3.org/2000/svg">
<circle cx="15" cy="15" r="15" fill="#F9690E"/>
<path d="M15 4L5 9.5V20.6201L15 26L25 20.6201V9.55958L15 4V4ZM14.9955 6.09092L22.1909 10.0922L20.19 11.1445L15 8.29642L9.84909 11.1234L7.84818 10.0225L14.9955 6.09092ZM15.0064 19.6658L11.5327 17.8105L15 15.9643L18.3991 17.8793L15.0064 19.6658ZM10.4545 12.8788L14.0909 10.8832V14.3739L10.4545 16.3136V12.8788ZM15.9091 14.3794V10.8823L19.5455 12.8779V16.4218L15.9091 14.3794ZM6.81818 19.521V11.5442L8.63636 12.5443V18.3385L14.0909 21.2517V23.4333L6.81818 19.521ZM23.1818 19.521L15.9091 23.4333V21.259L21.3636 18.388V12.5928L23.1818 11.6377V19.521Z" fill="white"/>
</svg>
