<svg width="14" height="14" viewBox="0 0 14 14" fill="none" xmlns="http://www.w3.org/2000/svg">
<path d="M9.1959 2.30125C8.7451 2.08308 8.4665 1.67708 8.4672 1.23958V1.23783C8.4679 0.554167 7.8106 0 7 0C6.1894 0 5.5321 0.554167 5.5321 1.23783V1.23958C5.5328 1.67767 5.2549 2.08308 4.8034 2.30125C1.5365 3.88325 3.4139 9.135 0 10.0631V11.0833H14V10.0631C10.5861 9.135 12.4635 3.88325 9.1959 2.30125ZM7 0.583333C7.3864 0.583333 7.7 0.84525 7.7 1.16667C7.7 1.48867 7.3864 1.75 7 1.75C6.6136 1.75 6.3 1.48867 6.3 1.16667C6.3 0.84525 6.6136 0.583333 7 0.583333ZM9.1 12.25C9.1 13.1822 8.1256 14 7.0203 14C5.915 14 4.9 13.1822 4.9 12.25H9.1Z" fill="#8B8D92"/>
</svg>
