<svg width="16" height="17" viewBox="0 0 16 17" fill="none" xmlns="http://www.w3.org/2000/svg">
<path d="M15.9577 9.22077C15.1679 9.69742 14.2486 10.0998 12.9157 10.4004C12.9232 10.4013 12.9522 10.4044 12.9361 10.4093C12.8168 10.4395 12.7532 10.4693 12.6303 10.4969C12.1646 10.5876 11.4786 10.6285 11.7043 10.01L12.653 8.71787L12.8836 8.9482L14.887 6.94731L12.8836 4.94642L10.8802 6.94731L12.0159 8.08159L11.0271 9.42841L11.0262 9.42752C10.2819 10.3168 8.89774 10.018 8.89774 8.9482H8.87682V6.28035L11.3254 3.83482L7.98642 0.5L4.64743 3.83482L7.09602 6.28035V9.03268C7.02301 10.0313 5.6981 10.2919 4.97421 9.42752L4.97332 9.42841L3.97251 8.06558L5.09263 6.94731L3.08923 4.94642L1.08584 6.94731L3.08923 8.9482L3.33587 8.70187L4.29617 10.01C4.52188 10.6285 3.83583 10.5876 3.36971 10.4969C3.24773 10.4693 3.18362 10.4395 3.0643 10.4093C3.04828 10.4044 3.07677 10.4017 3.08434 10.4004C1.75141 10.0998 0.832522 9.69742 0.0422939 9.22077C0.0387323 9.28791 0 9.3546 0 9.42308C0 10.9709 2.78027 14.2799 6.51014 15.0193L7.98642 16.5L9.47606 15.0193C13.2064 14.2799 16 10.9713 16 9.42308C16 9.3546 15.9613 9.28835 15.9577 9.22077Z" fill="#FFCC4D"/>
</svg>
